<svg width="20" height="22" viewBox="0 0 20 22" fill="none" xmlns="http://www.w3.org/2000/svg">
<path d="M14.59 6.09813L8 12.9704L4.41 9.23708L3 10.7075L8 15.9217L16 7.57896L14.59 6.09813ZM10 0.279083C4.48 0.279083 0 4.951 0 10.7075C0 16.464 4.48 21.1359 10 21.1359C15.52 21.1359 20 16.464 20 10.7075C20 4.951 15.52 0.279083 10 0.279083ZM10 19.0502C5.58 19.0502 2 15.3168 2 10.7075C2 6.09813 5.58 2.36476 10 2.36476C14.42 2.36476 18 6.09813 18 10.7075C18 15.3168 14.42 19.0502 10 19.0502Z" fill="#A1A1A1"/>
</svg>
