<svg width="24" height="24" viewBox="0 0 24 24" fill="none" xmlns="http://www.w3.org/2000/svg">
<path d="M17.3921 14.9846H16.3532L15.985 14.6295C17.2737 13.1304 18.0496 11.1841 18.0496 9.06691C18.0496 4.34592 14.2228 0.519165 9.50184 0.519165C4.78086 0.519165 0.954102 4.34592 0.954102 9.06691C0.954102 13.7879 4.78086 17.6146 9.50184 17.6146C11.6191 17.6146 13.5653 16.8388 15.0644 15.55L15.4195 15.9183V16.9571L21.9947 23.5192L23.9541 21.5598L17.3921 14.9846ZM9.50184 14.9846C6.2274 14.9846 3.58418 12.3413 3.58418 9.06691C3.58418 5.79246 6.2274 3.14924 9.50184 3.14924C12.7763 3.14924 15.4195 5.79246 15.4195 9.06691C15.4195 12.3413 12.7763 14.9846 9.50184 14.9846Z" fill="black"/>
</svg>
