<svg width="94" height="26" viewBox="0 0 94 26" fill="none" xmlns="http://www.w3.org/2000/svg">
<path d="M6.4861 18.2512C7.4381 18.2512 8.1941 17.6352 8.7541 16.4032C9.3141 15.1712 9.5941 13.4912 9.5941 11.3632C9.5941 10.1872 9.54744 9.20716 9.4541 8.42316C9.36077 7.63916 9.2021 7.00449 8.9781 6.51916C8.7541 6.03382 8.45544 5.68849 8.0821 5.48316C7.72744 5.27782 7.28877 5.17516 6.7661 5.17516H4.4141C3.9661 5.17516 3.7421 5.39916 3.7421 5.84716V17.3552C3.7421 17.6352 3.83544 17.8592 4.0221 18.0272C4.22744 18.1765 4.4981 18.2512 4.8341 18.2512H6.4861ZM7.5781 2.09516C8.54877 2.09516 9.3701 2.21649 10.0421 2.45916C10.7141 2.70182 11.2554 3.09382 11.6661 3.63516C12.0768 4.17649 12.3661 4.89516 12.5341 5.79116C12.7208 6.68716 12.8141 7.77916 12.8141 9.06716C12.8141 11.1018 12.5808 12.9125 12.1141 14.4992C11.6661 16.0858 11.0314 17.3365 10.2101 18.2512H11.9461C12.4128 18.2512 12.6461 18.4845 12.6461 18.9512V20.6312C12.6461 21.0978 12.4128 21.3312 11.9461 21.3312H3.4061C2.5101 21.3312 1.80077 21.1165 1.2781 20.6872C0.774102 20.2578 0.522102 19.6512 0.522102 18.8672V3.41116C0.522102 2.53382 0.951435 2.09516 1.8101 2.09516H7.5781ZM19.2261 24.3832C19.2261 24.8872 18.9834 25.1392 18.4981 25.1392H16.7341C16.2488 25.1392 16.0061 24.8872 16.0061 24.3832V1.08716C16.0061 0.583157 16.2488 0.331157 16.7341 0.331157H18.4981C18.9834 0.331157 19.2261 0.583157 19.2261 1.08716V10.6912C19.4314 10.3178 19.8141 10.1312 20.3741 10.1312H22.0261C22.4928 10.1312 22.7261 10.3645 22.7261 10.8312V12.5112C22.7261 12.9778 22.4928 13.2112 22.0261 13.2112H20.2061C19.5528 13.2112 19.2261 13.5098 19.2261 14.1072V24.3832ZM35.7214 7.35916C36.7294 7.35916 37.588 7.32182 38.2974 7.24716C39.0067 7.17249 39.576 7.06049 40.0054 6.91116C40.4347 6.76182 40.7427 6.56582 40.9294 6.32316C41.1347 6.08049 41.2374 5.79116 41.2374 5.45516C41.2374 5.11916 41.1441 4.82982 40.9574 4.58716C40.7707 4.34449 40.4534 4.14849 40.0054 3.99916C39.576 3.83116 39.0067 3.71916 38.2974 3.66316C37.6067 3.58849 36.7481 3.55116 35.7214 3.55116C34.6947 3.55116 33.8267 3.58849 33.1174 3.66316C32.4267 3.71916 31.8667 3.83116 31.4374 3.99916C31.0081 4.14849 30.6907 4.34449 30.4854 4.58716C30.2987 4.82982 30.2054 5.11916 30.2054 5.45516C30.2054 5.79116 30.2987 6.08049 30.4854 6.32316C30.6907 6.56582 31.0081 6.76182 31.4374 6.91116C31.8667 7.06049 32.4361 7.17249 33.1454 7.24716C33.8547 7.32182 34.7134 7.35916 35.7214 7.35916ZM39.1094 22.3952C39.7067 22.3952 40.2107 22.1898 40.6214 21.7792C41.0321 21.3685 41.2374 20.8645 41.2374 20.2672C41.2374 19.8378 41.1067 19.5112 40.8454 19.2872C40.5841 19.0632 40.2107 18.9512 39.7254 18.9512H30.7094C30.28 18.9512 30.0654 19.1658 30.0654 19.5952V21.5552C30.0654 22.1152 30.4107 22.3952 31.1014 22.3952H39.1094ZM25.6974 11.4472C26.3507 11.4845 27.0694 11.5218 27.8534 11.5592C28.6374 11.5778 29.4587 11.6058 30.3174 11.6432C31.176 11.6618 32.044 11.6805 32.9214 11.6992C33.7987 11.7178 34.648 11.7272 35.4694 11.7272C37.7654 11.7272 39.7161 11.7178 41.3214 11.6992C42.9454 11.6618 44.28 11.5872 45.3254 11.4752C45.8294 11.4192 46.0814 11.6432 46.0814 12.1472V13.6592C46.0814 14.1072 45.8481 14.3592 45.3814 14.4152C44.8774 14.4712 44.2614 14.5178 43.5334 14.5552C42.8054 14.5925 42.0027 14.6205 41.1254 14.6392C40.2667 14.6578 39.3521 14.6672 38.3814 14.6672C37.4294 14.6672 36.4587 14.6672 35.4694 14.6672C32.9121 14.6485 30.84 14.6205 29.2534 14.5832C27.6854 14.5458 26.4814 14.4805 25.6414 14.3872C25.1747 14.3312 24.9414 14.0792 24.9414 13.6312V12.1192C24.9414 11.6338 25.1934 11.4098 25.6974 11.4472ZM26.9854 5.45516C26.9854 3.81249 27.676 2.60849 29.0574 1.84316C30.4574 1.05916 32.6787 0.667156 35.7214 0.667156C38.764 0.667156 40.976 1.05916 42.3574 1.84316C43.7574 2.60849 44.4574 3.81249 44.4574 5.45516C44.4574 7.09782 43.7574 8.31116 42.3574 9.09516C40.976 9.86049 38.764 10.2432 35.7214 10.2432C32.6787 10.2432 30.4574 9.86049 29.0574 9.09516C27.676 8.31116 26.9854 7.09782 26.9854 5.45516ZM44.1494 22.3392C44.6161 22.3392 44.8494 22.5725 44.8494 23.0392V24.5792C44.8494 25.0458 44.6161 25.2792 44.1494 25.2792H29.6734C28.7774 25.2792 28.0774 25.0738 27.5734 24.6632C27.088 24.2525 26.8454 23.6552 26.8454 22.8712V17.3272C26.8454 16.4872 27.256 16.0672 28.0774 16.0672H41.3214C42.2734 16.0672 43.0294 16.3098 43.5894 16.7952C44.1681 17.2805 44.4574 17.9525 44.4574 18.8112C44.4574 19.5392 44.2707 20.2205 43.8974 20.8552C43.5241 21.4898 43.0294 21.9845 42.4134 22.3392H44.1494ZM61.5407 11.8392C61.5407 15.3112 61.0367 17.8592 60.0287 19.4832C59.0207 21.0885 57.4247 21.8912 55.2407 21.8912C53.0753 21.8912 51.4887 21.0885 50.4807 19.4832C49.4727 17.8592 48.9687 15.3112 48.9687 11.8392C48.9687 8.36716 49.4727 5.82849 50.4807 4.22316C51.4887 2.61782 53.0753 1.81516 55.2407 1.81516C57.4247 1.81516 59.0207 2.61782 60.0287 4.22316C61.0367 5.82849 61.5407 8.36716 61.5407 11.8392ZM55.2407 4.89516C54.1767 4.89516 53.402 5.43649 52.9167 6.51916C52.4313 7.60182 52.1887 9.37516 52.1887 11.8392C52.1887 14.3032 52.4313 16.0858 52.9167 17.1872C53.402 18.2698 54.1767 18.8112 55.2407 18.8112C56.3233 18.8112 57.1073 18.2698 57.5927 17.1872C58.078 16.1045 58.3207 14.3218 58.3207 11.8392C58.3207 9.37516 58.078 7.60182 57.5927 6.51916C57.1073 5.43649 56.3233 4.89516 55.2407 4.89516ZM65.2927 1.08716C65.2927 0.583157 65.5353 0.331157 66.0207 0.331157H67.7847C68.27 0.331157 68.5127 0.583157 68.5127 1.08716V24.3832C68.5127 24.8872 68.27 25.1392 67.7847 25.1392H66.0207C65.5353 25.1392 65.2927 24.8872 65.2927 24.3832V1.08716ZM83.3269 7.35916C84.3349 7.35916 85.1935 7.32182 85.9029 7.24716C86.6122 7.17249 87.1815 7.06049 87.6109 6.91116C88.0402 6.76182 88.3482 6.56582 88.5349 6.32316C88.7402 6.08049 88.8429 5.79116 88.8429 5.45516C88.8429 5.11916 88.7495 4.82982 88.5629 4.58716C88.3762 4.34449 88.0589 4.14849 87.6109 3.99916C87.1815 3.83116 86.6122 3.71916 85.9029 3.66316C85.2122 3.58849 84.3535 3.55116 83.3269 3.55116C82.3002 3.55116 81.4322 3.58849 80.7229 3.66316C80.0322 3.71916 79.4722 3.83116 79.0429 3.99916C78.6135 4.14849 78.2962 4.34449 78.0909 4.58716C77.9042 4.82982 77.8109 5.11916 77.8109 5.45516C77.8109 5.79116 77.9042 6.08049 78.0909 6.32316C78.2962 6.56582 78.6135 6.76182 79.0429 6.91116C79.4722 7.06049 80.0415 7.17249 80.7509 7.24716C81.4602 7.32182 82.3189 7.35916 83.3269 7.35916ZM86.7149 22.3952C87.3122 22.3952 87.8162 22.1898 88.2269 21.7792C88.6375 21.3685 88.8429 20.8645 88.8429 20.2672C88.8429 19.8378 88.7122 19.5112 88.4509 19.2872C88.1895 19.0632 87.8162 18.9512 87.3309 18.9512H78.3149C77.8855 18.9512 77.6709 19.1658 77.6709 19.5952V21.5552C77.6709 22.1152 78.0162 22.3952 78.7069 22.3952H86.7149ZM73.3029 11.4472C73.9562 11.4845 74.6749 11.5218 75.4589 11.5592C76.2429 11.5778 77.0642 11.6058 77.9229 11.6432C78.7815 11.6618 79.6495 11.6805 80.5269 11.6992C81.4042 11.7178 82.2535 11.7272 83.0749 11.7272C85.3709 11.7272 87.3215 11.7178 88.9269 11.6992C90.5509 11.6618 91.8855 11.5872 92.9309 11.4752C93.4349 11.4192 93.6869 11.6432 93.6869 12.1472V13.6592C93.6869 14.1072 93.4535 14.3592 92.9869 14.4152C92.4829 14.4712 91.8669 14.5178 91.1389 14.5552C90.4109 14.5925 89.6082 14.6205 88.7309 14.6392C87.8722 14.6578 86.9575 14.6672 85.9869 14.6672C85.0349 14.6672 84.0642 14.6672 83.0749 14.6672C80.5175 14.6485 78.4455 14.6205 76.8589 14.5832C75.2909 14.5458 74.0869 14.4805 73.2469 14.3872C72.7802 14.3312 72.5469 14.0792 72.5469 13.6312V12.1192C72.5469 11.6338 72.7989 11.4098 73.3029 11.4472ZM74.5909 5.45516C74.5909 3.81249 75.2815 2.60849 76.6629 1.84316C78.0629 1.05916 80.2842 0.667156 83.3269 0.667156C86.3695 0.667156 88.5815 1.05916 89.9629 1.84316C91.3629 2.60849 92.0629 3.81249 92.0629 5.45516C92.0629 7.09782 91.3629 8.31116 89.9629 9.09516C88.5815 9.86049 86.3695 10.2432 83.3269 10.2432C80.2842 10.2432 78.0629 9.86049 76.6629 9.09516C75.2815 8.31116 74.5909 7.09782 74.5909 5.45516ZM91.7549 22.3392C92.2215 22.3392 92.4549 22.5725 92.4549 23.0392V24.5792C92.4549 25.0458 92.2215 25.2792 91.7549 25.2792H77.2789C76.3829 25.2792 75.6829 25.0738 75.1789 24.6632C74.6935 24.2525 74.4509 23.6552 74.4509 22.8712V17.3272C74.4509 16.4872 74.8615 16.0672 75.6829 16.0672H88.9269C89.8789 16.0672 90.6349 16.3098 91.1949 16.7952C91.7735 17.2805 92.0629 17.9525 92.0629 18.8112C92.0629 19.5392 91.8762 20.2205 91.5029 20.8552C91.1295 21.4898 90.6349 21.9845 90.0189 22.3392H91.7549Z" fill="#FFCC00"/>
</svg>
